<?xml version="1.0" standalone="no"?>
<!DOCTYPE svg PUBLIC "-//W3C//DTD SVG 1.1//EN"
  "http://www.w3.org/Graphics/SVG/1.1/DTD/svg11.dtd">
<svg version="1.1" xmlns="http://www.w3.org/2000/svg" xmlns:xlink="http://www.w3.org/1999/xlink" width="1280" height="720" viewBox="-1040.8888888888887 -32 1889.7777777777776 1063" id="ccdiagram"><filter id="grayscale"><feColorMatrix type="matrix" values="0.3333 0.3333 0.3333 0 0 0.3333 0.3333 0.3333 0 0 0.3333 0.3333 0.3333 0 0 0 0 0 1 0"></feColorMatrix></filter><defs><style type="text/css">@import url('https://fonts.googleapis.com/css?family=Open+Sans:400,700|Inconsolata:400');</style></defs><g><g style="pointer-events: none;"><g><pattern id="gridPatternMinor" x="0" y="37" width="128" height="74" patternUnits="userSpaceOnUse"><path d="M 0 0 L 128 74" stroke="#eee" stroke-width="1"></path><path d="M 128 0 L 0 74" stroke="#eee" stroke-width="1"></path></pattern><polygon points="0 0, 768 444, -192 999, -960 555" fill="url(#gridPatternMinor)"></polygon></g><polygon points="-960 555, -960 565, -192 1009, -192 999" stroke-linejoin="round" stroke="#54626f" stroke-width="1" fill="#f9f9f9"></polygon><polygon points="-192 1009, 768 454, 768 444, -192 999" stroke-linejoin="round" stroke="#54626f" stroke-width="1" fill="#e2e2e2"></polygon></g><g pointer-events="auto"></g><g style="pointer-events: none;"><g><pattern id="gridPatternMajor" x="0" y="37" width="128" height="74" patternUnits="userSpaceOnUse"><path d="M 64 0 L 128 37 64 74 0 37 z" stroke="#54626f" stroke-width="1" fill="none"></path></pattern><polygon points="0 0, 768 444, -192 999, -960 555" fill="url(#gridPatternMajor)"></polygon></g></g><g pointer-events="auto"></g><g></g><g pointer-events="auto"></g><g></g><g pointer-events="auto"></g><g pointer-events="auto"></g><g pointer-events="none"></g><g pointer-events="auto"><g id="103bc09b-55f4-4c3b-9480-9c6d66020086-beaeb5c2-e716-4a4f-ab81-78714d488c80"><g cursor="cell"><line x1="-384" y1="333" x2="9" y2="706" stroke="red" stroke-width="8" opacity="0"></line><line x1="-384" y1="333" x2="9" y2="706" stroke="#000000" stroke-width="2" stroke-linecap="round"></line><polygon points="16 712, 13 697, 7 704, -7 704, 16 712" stroke-linejoin="round" fill="#000000" stroke="#000000" stroke-width="1"></polygon></g></g><g id="103bc09b-55f4-4c3b-9480-9c6d66020086-c998c594-a281-4b85-aff8-64d6185fadca"><g cursor="cell"><line x1="-384" y1="333" x2="134" y2="633" stroke="red" stroke-width="8" opacity="0"></line><line x1="-384" y1="333" x2="134" y2="633" stroke="#000000" stroke-width="2" stroke-linecap="round"></line><polygon points="144 638, 135 623, 132 631, 118 633, 144 638" stroke-linejoin="round" fill="#000000" stroke="#000000" stroke-width="1"></polygon></g></g><g id="103bc09b-55f4-4c3b-9480-9c6d66020086-8052dfe4-1393-467a-8db6-f618c21f3472"><g cursor="cell"><line x1="-384" y1="333" x2="260" y2="560" stroke="red" stroke-width="8" opacity="0"></line><line x1="-384" y1="333" x2="260" y2="560" stroke="#000000" stroke-width="2" stroke-linecap="round"></line><polygon points="272 564, 257 551, 257 559, 245 563, 272 564" stroke-linejoin="round" fill="#000000" stroke="#000000" stroke-width="1"></polygon></g></g></g><g pointer-events="auto"><g opacity="1"><g id="8052dfe4-1393-467a-8db6-f618c21f3472" transform="translate(0 0)"><svg x="272" y="506" height="113.438" width="96" viewBox="0 0 25.4 30.014"><g transform="translate(412.599 -86.957)"><g fill-rule="evenodd"><path d="M-412.333 102.348v4.786l8.29 4.785h8.289l8.29-4.785v-4.786l-8.29-4.786h-8.29z" fill="#3c3c3c"></path><path d="M-395.754 111.92l8.29-4.786v4.785l-8.29 4.786z" fill="#090909"></path><path d="M-404.044 111.92h8.29v4.785h-8.29z" fill="#232323"></path><path d="M-412.333 107.134v4.785l8.29 4.786v-4.786z" fill="#232323"></path><path d="M-412.333 107.134l8.29 4.785h8.289l8.29-4.785M-404.044 111.92v4.785M-395.754 111.92v4.785" fill="none" stroke="#a2a2a2" stroke-width=".26588"></path><path d="M-412.333 102.348v9.571l8.29 4.786h8.289l8.29-4.786v-9.571l-8.29-4.786h-8.29z" fill="none" stroke="#000000" stroke-width=".53176"></path></g><path d="M-412.333 97.178v4.786l8.29 4.786h8.289l8.29-4.786v-4.786l-8.29-4.786h-8.29z" fill="#3c3c3c" fill-rule="evenodd" stroke-width=".332"></path><path d="M-395.754 106.75l8.29-4.786v4.786l-8.29 4.786z" fill="#090909" fill-rule="evenodd" stroke-width=".332"></path><path d="M-404.044 106.75h8.29v4.786h-8.29z" fill="#232323" fill-rule="evenodd" stroke-width=".332"></path><path d="M-412.333 101.964v4.786l8.29 4.786v-4.786z" fill="#232323" fill-rule="evenodd" stroke-width=".332"></path><path d="M-412.333 101.964l8.29 4.786h8.289l8.29-4.786M-404.044 106.75v4.786M-395.754 106.75v4.786" fill="none" fill-rule="evenodd" stroke="#a2a2a2" stroke-width=".266"></path><path d="M-412.333 97.178v9.572l8.29 4.786h8.289l8.29-4.786v-9.572l-8.29-4.786h-8.29z" fill="none" fill-rule="evenodd" stroke="#000000" stroke-width=".532"></path><path d="M-412.333 92.01v4.785l8.29 4.786h8.289l8.29-4.786v-4.786l-8.29-4.786h-8.29z" fill="#3c3c3c" fill-rule="evenodd" stroke-width=".332"></path><path d="M-395.754 101.58l8.29-4.785v4.786l-8.29 4.786z" fill="#090909" fill-rule="evenodd" stroke-width=".332"></path><path d="M-404.044 101.58h8.29v4.787h-8.29z" fill="#232323" fill-rule="evenodd" stroke-width=".332"></path><path d="M-412.333 96.795v4.786l8.29 4.786v-4.786z" fill="#232323" fill-rule="evenodd" stroke-width=".332"></path><path d="M-412.333 96.795l8.29 4.786h8.289l8.29-4.786M-404.044 101.58v4.787M-395.754 101.58v4.787" fill="none" fill-rule="evenodd" stroke="#a2a2a2" stroke-width=".266"></path><path d="M-412.333 92.01v9.57l8.29 4.787h8.289l8.29-4.786v-9.572l-8.29-4.786h-8.29z" fill="none" fill-rule="evenodd" stroke="#000000" stroke-width=".532"></path><circle cx="-136.478" cy="325.284" fill="#f4b934" r="5.801" stroke-width=".286" transform="scale(1.22475 .7071) rotate(45)"></circle><g style="line-height: 0%;"><path d="M-399.242 93.57l.48-.601q.222-.275.177-.448-.04-.17-.467-.416l-.507-.293 1.065-.614.937.541q.825.476.92.934.1.46-.417 1.114l-3.452 4.39-1.622-.937 1.654-2.121-3.729.923-1.622-.936z" fill="#ffffff" font-family="Droid Serif" font-size="9.971" stroke-width=".266" style="line-height: 1.25;"></path></g></g></svg></g></g><g opacity="1"><g id="c998c594-a281-4b85-aff8-64d6185fadca" transform="translate(0 0)"><svg x="144" y="580" height="113.438" width="96" viewBox="0 0 25.4 30.014"><g transform="translate(412.599 -86.957)"><g fill-rule="evenodd"><path d="M-412.333 102.348v4.786l8.29 4.785h8.289l8.29-4.785v-4.786l-8.29-4.786h-8.29z" fill="#3c3c3c"></path><path d="M-395.754 111.92l8.29-4.786v4.785l-8.29 4.786z" fill="#090909"></path><path d="M-404.044 111.92h8.29v4.785h-8.29z" fill="#232323"></path><path d="M-412.333 107.134v4.785l8.29 4.786v-4.786z" fill="#232323"></path><path d="M-412.333 107.134l8.29 4.785h8.289l8.29-4.785M-404.044 111.92v4.785M-395.754 111.92v4.785" fill="none" stroke="#a2a2a2" stroke-width=".26588"></path><path d="M-412.333 102.348v9.571l8.29 4.786h8.289l8.29-4.786v-9.571l-8.29-4.786h-8.29z" fill="none" stroke="#000000" stroke-width=".53176"></path></g><path d="M-412.333 97.178v4.786l8.29 4.786h8.289l8.29-4.786v-4.786l-8.29-4.786h-8.29z" fill="#3c3c3c" fill-rule="evenodd" stroke-width=".332"></path><path d="M-395.754 106.75l8.29-4.786v4.786l-8.29 4.786z" fill="#090909" fill-rule="evenodd" stroke-width=".332"></path><path d="M-404.044 106.75h8.29v4.786h-8.29z" fill="#232323" fill-rule="evenodd" stroke-width=".332"></path><path d="M-412.333 101.964v4.786l8.29 4.786v-4.786z" fill="#232323" fill-rule="evenodd" stroke-width=".332"></path><path d="M-412.333 101.964l8.29 4.786h8.289l8.29-4.786M-404.044 106.75v4.786M-395.754 106.75v4.786" fill="none" fill-rule="evenodd" stroke="#a2a2a2" stroke-width=".266"></path><path d="M-412.333 97.178v9.572l8.29 4.786h8.289l8.29-4.786v-9.572l-8.29-4.786h-8.29z" fill="none" fill-rule="evenodd" stroke="#000000" stroke-width=".532"></path><path d="M-412.333 92.01v4.785l8.29 4.786h8.289l8.29-4.786v-4.786l-8.29-4.786h-8.29z" fill="#3c3c3c" fill-rule="evenodd" stroke-width=".332"></path><path d="M-395.754 101.58l8.29-4.785v4.786l-8.29 4.786z" fill="#090909" fill-rule="evenodd" stroke-width=".332"></path><path d="M-404.044 101.58h8.29v4.787h-8.29z" fill="#232323" fill-rule="evenodd" stroke-width=".332"></path><path d="M-412.333 96.795v4.786l8.29 4.786v-4.786z" fill="#232323" fill-rule="evenodd" stroke-width=".332"></path><path d="M-412.333 96.795l8.29 4.786h8.289l8.29-4.786M-404.044 101.58v4.787M-395.754 101.58v4.787" fill="none" fill-rule="evenodd" stroke="#a2a2a2" stroke-width=".266"></path><path d="M-412.333 92.01v9.57l8.29 4.787h8.289l8.29-4.786v-9.572l-8.29-4.786h-8.29z" fill="none" fill-rule="evenodd" stroke="#000000" stroke-width=".532"></path><circle cx="-136.478" cy="325.284" fill="#f4b934" r="5.801" stroke-width=".286" transform="scale(1.22475 .7071) rotate(45)"></circle><g style="line-height: 0%;"><path d="M-399.242 93.57l.48-.601q.222-.275.177-.448-.04-.17-.467-.416l-.507-.293 1.065-.614.937.541q.825.476.92.934.1.46-.417 1.114l-3.452 4.39-1.622-.937 1.654-2.121-3.729.923-1.622-.936z" fill="#ffffff" font-family="Droid Serif" font-size="9.971" stroke-width=".266" style="line-height: 1.25;"></path></g></g></svg></g></g><g opacity="1"><g id="beaeb5c2-e716-4a4f-ab81-78714d488c80" transform="translate(0 0)"><svg x="16" y="654" height="113.438" width="96" viewBox="0 0 25.4 30.014"><g transform="translate(412.599 -86.957)"><g fill-rule="evenodd"><path d="M-412.333 102.348v4.786l8.29 4.785h8.289l8.29-4.785v-4.786l-8.29-4.786h-8.29z" fill="#3c3c3c"></path><path d="M-395.754 111.92l8.29-4.786v4.785l-8.29 4.786z" fill="#090909"></path><path d="M-404.044 111.92h8.29v4.785h-8.29z" fill="#232323"></path><path d="M-412.333 107.134v4.785l8.29 4.786v-4.786z" fill="#232323"></path><path d="M-412.333 107.134l8.29 4.785h8.289l8.29-4.785M-404.044 111.92v4.785M-395.754 111.92v4.785" fill="none" stroke="#a2a2a2" stroke-width=".26588"></path><path d="M-412.333 102.348v9.571l8.29 4.786h8.289l8.29-4.786v-9.571l-8.29-4.786h-8.29z" fill="none" stroke="#000000" stroke-width=".53176"></path></g><path d="M-412.333 97.178v4.786l8.29 4.786h8.289l8.29-4.786v-4.786l-8.29-4.786h-8.29z" fill="#3c3c3c" fill-rule="evenodd" stroke-width=".332"></path><path d="M-395.754 106.75l8.29-4.786v4.786l-8.29 4.786z" fill="#090909" fill-rule="evenodd" stroke-width=".332"></path><path d="M-404.044 106.75h8.29v4.786h-8.29z" fill="#232323" fill-rule="evenodd" stroke-width=".332"></path><path d="M-412.333 101.964v4.786l8.29 4.786v-4.786z" fill="#232323" fill-rule="evenodd" stroke-width=".332"></path><path d="M-412.333 101.964l8.29 4.786h8.289l8.29-4.786M-404.044 106.75v4.786M-395.754 106.75v4.786" fill="none" fill-rule="evenodd" stroke="#a2a2a2" stroke-width=".266"></path><path d="M-412.333 97.178v9.572l8.29 4.786h8.289l8.29-4.786v-9.572l-8.29-4.786h-8.29z" fill="none" fill-rule="evenodd" stroke="#000000" stroke-width=".532"></path><path d="M-412.333 92.01v4.785l8.29 4.786h8.289l8.29-4.786v-4.786l-8.29-4.786h-8.29z" fill="#3c3c3c" fill-rule="evenodd" stroke-width=".332"></path><path d="M-395.754 101.58l8.29-4.785v4.786l-8.29 4.786z" fill="#090909" fill-rule="evenodd" stroke-width=".332"></path><path d="M-404.044 101.58h8.29v4.787h-8.29z" fill="#232323" fill-rule="evenodd" stroke-width=".332"></path><path d="M-412.333 96.795v4.786l8.29 4.786v-4.786z" fill="#232323" fill-rule="evenodd" stroke-width=".332"></path><path d="M-412.333 96.795l8.29 4.786h8.289l8.29-4.786M-404.044 101.58v4.787M-395.754 101.58v4.787" fill="none" fill-rule="evenodd" stroke="#a2a2a2" stroke-width=".266"></path><path d="M-412.333 92.01v9.57l8.29 4.787h8.289l8.29-4.786v-9.572l-8.29-4.786h-8.29z" fill="none" fill-rule="evenodd" stroke="#000000" stroke-width=".532"></path><circle cx="-136.478" cy="325.284" fill="#f4b934" r="5.801" stroke-width=".286" transform="scale(1.22475 .7071) rotate(45)"></circle><g style="line-height: 0%;"><path d="M-399.242 93.57l.48-.601q.222-.275.177-.448-.04-.17-.467-.416l-.507-.293 1.065-.614.937.541q.825.476.92.934.1.46-.417 1.114l-3.452 4.39-1.622-.937 1.654-2.121-3.729.923-1.622-.936z" fill="#ffffff" font-family="Droid Serif" font-size="9.971" stroke-width=".266" style="line-height: 1.25;"></path></g></g></svg></g></g></g><g pointer-events="auto"></g><g pointer-events="auto"><g opacity="1"><g id="103bc09b-55f4-4c3b-9480-9c6d66020086" transform="translate(0 0)"><svg x="-384" y="333" overflow="visible"><g transform="scale(1.3975424859373686) matrix(0.707 0.409 -0.707 0.409 0 0)"><circle cx="0" cy="0" fill="transparent" r="40"></circle><svg width="100" height="100" x="-50" y="-50"><svg id="Layer_1" data-name="Layer 1" xmlns="http://www.w3.org/2000/svg" width="100" height="100" viewBox="0 0 100 100"><g><g fill="#4b612c"><circle cx="66.9" cy="30.64" r="13"></circle><path d="M66.9 45.14a14.5 14.5 0 1114.5-14.5 14.52 14.52 0 01-14.5 14.5zm0-26a11.5 11.5 0 1011.5 11.5 11.51 11.51 0 00-11.5-11.5z"></path></g><g><circle cx="66.9" cy="28.16" r="13" fill="#fff"></circle><path d="M66.9 42.66a14.5 14.5 0 1114.5-14.5 14.52 14.52 0 01-14.5 14.5zm0-26a11.5 11.5 0 1011.5 11.5 11.51 11.51 0 00-11.5-11.5z" fill="#4f4f4f"></path></g><path fill="#4f4f4f" d="M60.88 27.66h7.01v3h-7.01z"></path><path fill="#4f4f4f" d="M66.4 19.1h3v11.56h-3z"></path><path fill="#4b612c" d="M27.7 50.04h10.71v26.44H27.7zM44.62 55.19h10.71v21.29H44.62z"></path><path transform="rotate(90 49.975 83.505)" fill="#4b612c" d="M47.14 59.28h5.66v48.45h-5.66z"></path><path d="M61.54 46.86v29.62h10.71V46.86a11.2 11.2 0 01-10.71 0z" fill="#4b612c"></path><path fill="#759c3e" d="M27.7 47.56h10.71V74H27.7zM44.62 52.71h10.71V74H44.62z"></path><path transform="rotate(90 49.975 81.025)" fill="#759c3e" d="M47.14 56.8h5.66v48.45h-5.66z"></path><path d="M61.54 44.38V74h10.71V44.38a11.2 11.2 0 01-10.71 0z" fill="#759c3e"></path></g></svg></svg></g></svg></g></g></g><g pointer-events="auto"><g opacity="1"><g id="ec545368-45bb-4a35-a0b6-b2d879ba1ed4" transform="translate(0 0)"><svg x="-192" y="851" overflow="visible"><text stroke="#ffffff" stroke-width="4" font-family="Open Sans" y="36.5" font-size="25pt" fill="#f5b720" font-weight="bold" transform="matrix(0.707 -0.409 0.707 0.409 0 0)" xml:space="preserve"><tspan x="8" dy="0">Customer</tspan><tspan x="8" dy="1.1em">Lambda</tspan></text><text font-family="Open Sans" y="36.5" font-size="25pt" fill="#f5b720" font-weight="bold" transform="matrix(0.707 -0.409 0.707 0.409 0 0)" xml:space="preserve"><tspan x="8" dy="0">Customer</tspan><tspan x="8" dy="1.1em">Lambda</tspan></text></svg></g></g><g opacity="1"><g id="3b6a65f7-18e0-47bb-8e52-87f8e30ca17a" transform="translate(0 0)"><svg x="-640" y="444" overflow="visible"><text stroke="#ffffff" stroke-width="4" font-family="Open Sans" y="36.5" font-size="25pt" fill="#f5b720" font-weight="bold" transform="matrix(0.707 -0.409 0.707 0.409 0 0)" xml:space="preserve"><tspan x="8" dy="0">CloudWatch</tspan><tspan x="8" dy="1.1em">Event</tspan></text><text font-family="Open Sans" y="36.5" font-size="25pt" fill="#f5b720" font-weight="bold" transform="matrix(0.707 -0.409 0.707 0.409 0 0)" xml:space="preserve"><tspan x="8" dy="0">CloudWatch</tspan><tspan x="8" dy="1.1em">Event</tspan></text></svg></g></g></g><g></g><g></g><g></g><g></g><g></g><g></g><g></g><g></g></g></svg>